HIERARCHY
ROOT Hips
{
	OFFSET	0.00	0.00	0.00
	CHANNELS 6 Xposition Yposition Zposition Zrotation Xrotation Yrotation
	JOINT LeftUpLeg
	{
		OFFSET	 0.126116	-0.014019	-0.065224
		CHANNELS 3 Zrotation Xrotation Yrotation
		JOINT LeftLeg
		{
			OFFSET	 0.000000	 0.000000	 0.569914
			CHANNELS 3 Zrotation Xrotation Yrotation
			JOINT LeftFoot
			{
				OFFSET	 0.000000	 0.000000	 0.544423
				CHANNELS 3 Zrotation Xrotation Yrotation
				JOINT LeftToeBase
				{
					OFFSET	 0.000000	 0.000000	 0.207117
					CHANNELS 3 Zrotation Xrotation Yrotation
					End Site
					{
						OFFSET	 0.000000	 0.000000	 0.207117
					}
				}
			}
		}
	}
	JOINT RightUpLeg
	{
		OFFSET	-0.124023	-0.008373	-0.065224
		CHANNELS 3 Zrotation Xrotation Yrotation
		JOINT RightLeg
		{
			OFFSET	 0.000000	 0.000000	 0.570047
			CHANNELS 3 Zrotation Xrotation Yrotation
			JOINT RightFoot
			{
				OFFSET	 0.000000	 0.000000	 0.544354
				CHANNELS 3 Zrotation Xrotation Yrotation
				JOINT RightToeBase
				{
					OFFSET	 0.000000	 0.000000	 0.207540
					CHANNELS 3 Zrotation Xrotation Yrotation
					End Site
					{
						OFFSET	 0.000000	 0.000000	 0.207540
					}
				}
			}
		}
	}
	JOINT Spine
	{
		OFFSET	 0.000184	-0.007763	 0.117403
		CHANNELS 3 Zrotation Xrotation Yrotation
		JOINT Spine1
		{
			OFFSET	 0.000000	 0.000000	 0.137269
			CHANNELS 3 Zrotation Xrotation Yrotation
			JOINT Spine2
			{
				OFFSET	 0.000000	 0.000000	 0.156879
				CHANNELS 3 Zrotation Xrotation Yrotation
				JOINT LeftShoulder
				{
					OFFSET	 0.080501	-0.002496	 0.160144
					CHANNELS 3 Zrotation Xrotation Yrotation
					JOINT LeftArm
					{
						OFFSET	 0.000000	 0.000000	 0.164363
						CHANNELS 3 Zrotation Xrotation Yrotation
						JOINT LeftForeArm
						{
							OFFSET	 0.000000	 0.000000	 0.364576
							CHANNELS 3 Zrotation Xrotation Yrotation
							JOINT LeftHand
							{
								OFFSET	 0.000000	 0.000000	 0.360812
								CHANNELS 3 Zrotation Xrotation Yrotation
								JOINT LeftHandIndex1
								{
									OFFSET	 0.000000	 0.000000	 0.086006
									CHANNELS 3 Zrotation Xrotation Yrotation
									JOINT LeftHandIndex2
									{
										OFFSET	 0.000000	 0.000000	 0.047236
										CHANNELS 3 Zrotation Xrotation Yrotation
										JOINT LeftHandIndex3
										{
											OFFSET	-0.004284	-0.000551	 0.038166
											CHANNELS 3 Zrotation Xrotation Yrotation
											End Site
											{
												OFFSET	-0.004284	-0.000551	 0.038166
											}
										}
									}
								}
							}
						}
					}
				}
				JOINT Neck
				{
					OFFSET	 0.000000	 0.000000	 0.176489
					CHANNELS 3 Zrotation Xrotation Yrotation
					JOINT Head
					{
						OFFSET	 0.000000	-0.001747	 0.077940
						CHANNELS 3 Zrotation Xrotation Yrotation
						End Site
						{
							OFFSET	 0.000000	-0.001747	 0.077940
						}
					}
				}
				JOINT RightShoulder
				{
					OFFSET	-0.080363	 0.000306	 0.159706
					CHANNELS 3 Zrotation Xrotation Yrotation
					JOINT RightArm
					{
						OFFSET	 0.000000	 0.000000	 0.164196
						CHANNELS 3 Zrotation Xrotation Yrotation
						JOINT RightForeArm
						{
							OFFSET	 0.000000	 0.000000	 0.365611
							CHANNELS 3 Zrotation Xrotation Yrotation
							JOINT RightHand
							{
								OFFSET	 0.000000	 0.000000	 0.360648
								CHANNELS 3 Zrotation Xrotation Yrotation
								JOINT RightHandIndex1
								{
									OFFSET	 0.000000	 0.000000	 0.069977
									CHANNELS 3 Zrotation Xrotation Yrotation
									JOINT RightHandIndex2
									{
										OFFSET	 0.000000	 0.000000	 0.052305
										CHANNELS 3 Zrotation Xrotation Yrotation
										JOINT RightHandIndex3
										{
											OFFSET	 0.009002	-0.000782	 0.042196
											CHANNELS 3 Zrotation Xrotation Yrotation
											End Site
											{
												OFFSET	 0.009002	-0.000782	 0.042196
											}
										}
									}
								}
							}
						}
					}
				}
			}
		}
	}
}
MOTION
Frames:    9
Frame Time: 0.03333334
 3.719749	 0.027827	 0.970861	 84.544080	-2.364108	-1.107857	 7.232529	 19.864680	-176.747300	-3.574438	-11.633610	 1.463618	 3.436374	 84.242490	-0.132352	-2.309564	 38.951000	-0.247858	 4.754535	-35.548290	-178.035200	 1.811282	-44.896820	 5.664254	 103.705500	 89.873330	-97.715870	 2.372959	 30.733360	 0.051566	-0.981948	 3.588131	 2.356836	-1.131137	-1.486635	 0.794160	-1.164994	-3.980940	-0.628028	-91.776180	 78.527420	-180.000000	 35.568400	 60.628040	-53.531910	-8.949375	-4.958304	-35.554840	 5.154827	 11.209560	-5.469910	-3.812334	 37.924440	-2.927599	-2.450526	 36.184240	 0.754587	-1.378229	 35.397820	-2.634230	 1.212996	 2.146561	-4.946274	 0.993307	-9.115700	 3.343163	 89.782120	 78.203870	 180.000000	-38.198120	 71.868460	 35.725180	 0.047384	-6.849732	 22.343290	-15.687460	 9.928986	 9.694968	 6.437017	 35.671460	-0.771858	 2.830251	 35.756010	-7.813440	-2.350882	 35.473990	 5.254307
 3.746254	 0.024490	 0.969958	 84.777720	-2.127599	-1.223960	 7.328334	 20.913880	-176.888800	-3.540859	-11.630110	 1.491652	 3.754824	 84.416820	-0.331664	-2.295702	 40.206770	-0.281190	 5.179848	-35.841700	-177.669800	 0.577091	-41.686020	 4.641828	 127.932200	 89.752130	-122.333700	 2.368797	 31.456510	 0.067839	-1.022019	 3.425331	 2.299648	-1.159771	-1.559833	 0.764685	-1.184261	-4.039676	-0.644724	-91.776180	 78.527400	-180.000000	 35.814770	 60.512380	-54.035850	-9.017261	-4.960151	-36.221570	 5.119200	 11.904370	-5.479003	-3.812334	 37.924440	-2.927599	-2.450526	 36.184240	 0.754587	-1.378229	 35.397820	-2.634230	 1.224730	 2.177323	-4.963065	 1.014020	-9.242118	 3.581541	 89.782120	 78.203930	 180.000000	-37.578350	 72.272340	 34.984030	 0.198370	-6.794252	 21.842710	-16.002000	 10.633560	 9.711775	 6.437017	 35.671460	-0.771858	 2.830251	 35.756010	-7.813440	-2.350882	 35.473990	 5.254307
 3.771185	 0.021312	 0.969034	 85.006150	-1.985490	-1.287092	 7.405042	 21.955560	-177.048500	-3.458568	-11.626030	 1.522946	 4.077899	 84.420720	-0.508759	-2.279201	 41.574620	-0.318674	 5.257079	-36.057950	-177.529300	-0.033986	-39.543460	 4.021013	 148.003700	 89.547590	-142.678700	 2.364264	 32.192220	 0.084595	-1.079280	 3.324508	 2.195372	-1.195698	-1.620312	 0.717634	-1.190337	-4.096268	-0.667254	-91.776180	 78.527400	-180.000000	 36.209300	 60.537850	-54.573890	-9.062211	-4.969902	-36.595540	 5.133376	 12.483070	-5.491656	-3.812334	 37.924440	-2.927599	-2.450526	 36.184240	 0.754587	-1.378229	 35.397820	-2.634230	 1.226624	 2.156432	-4.984744	 1.031391	-9.299704	 3.837000	 89.782100	 78.203870	-180.000000	-36.968590	 72.612750	 34.286470	 0.282694	-6.747109	 21.344440	-16.320910	 11.196680	 9.725020	 6.437017	 35.671460	-0.771858	 2.830251	 35.756010	-7.813440	-2.350882	 35.473990	 5.254307
 3.798810	 0.017732	 0.968104	 85.265660	-1.908109	-1.317678	 7.530122	 23.119560	-177.361900	-3.284192	-11.619980	 1.568902	 4.477028	 84.225590	-0.679290	-2.256163	 43.294960	-0.367785	 5.151988	-36.066960	-177.421900	-0.223730	-38.187860	 3.689193	 152.876000	 89.381030	-147.688000	 2.360815	 32.725790	 0.096868	-1.156603	 3.259761	 2.062520	-1.237960	-1.671907	 0.644321	-1.182417	-4.139517	-0.697986	-91.776180	 78.527420	-180.000000	 36.679440	 60.715600	-54.986270	-9.096517	-4.987621	-36.740060	 5.193080	 13.018460	-5.503554	-3.812334	 37.924440	-2.927599	-2.450526	 36.184240	 0.754587	-1.378229	 35.397820	-2.634230	 1.234622	 2.104218	-5.012277	 1.053872	-9.320396	 4.107337	 89.782090	 78.203830	-180.000000	-36.337230	 72.937170	 33.581700	 0.326440	-6.693034	 20.791610	-16.664890	 11.717780	 9.736791	 6.437017	 35.671460	-0.771858	 2.830251	 35.756010	-7.813440	-2.350882	 35.473990	 5.254307
 3.825193	 0.014068	 0.967233	 85.508840	-1.945395	-1.323283	 7.682870	 24.225700	-177.768900	-3.024292	-11.612150	 1.626548	 4.876945	 83.776570	-0.777239	-2.234294	 44.766420	-0.411689	 4.992661	-35.900090	-177.419100	-0.026990	-37.768280	 3.687509	 152.071600	 89.374740	-146.802800	 2.361051	 32.689510	 0.096026	-1.225430	 3.215745	 1.955970	-1.272769	-1.703992	 0.559941	-1.159350	-4.145489	-0.729805	-91.776180	 78.527420	-180.000000	 37.234730	 60.969380	-55.396670	-9.123679	-4.992425	-36.661270	 5.255016	 13.439940	-5.512946	-3.812334	 37.924440	-2.927599	-2.450526	 36.184240	 0.754587	-1.378229	 35.397820	-2.634230	 1.256551	 2.074239	-5.028676	 1.084861	-9.331717	 4.320268	 89.782070	 78.203930	-180.000000	-35.831120	 73.193570	 33.023770	 0.322506	-6.638501	 20.279190	-16.971620	 12.127600	 9.745344	 6.437017	 35.671460	-0.771858	 2.830251	 35.756010	-7.813440	-2.350882	 35.473990	 5.254307
 3.854348	 0.009599	 0.966233	 85.769580	-1.999132	-1.324075	 7.879849	 25.438460	-178.308800	-2.645977	-11.601240	 1.703293	 5.307101	 82.976220	-0.789901	-2.213317	 46.054820	-0.451764	 4.889696	-35.651870	-177.514500	 0.387940	-37.940220	 3.921867	 143.179400	 89.548890	-137.647500	 2.365223	 32.039810	 0.081106	-1.295473	 3.170882	 1.888434	-1.305545	-1.718678	 0.459318	-1.118620	-4.099134	-0.767178	-91.776180	 78.527420	-180.000000	 37.939590	 61.315500	-55.776660	-9.137300	-4.971642	-36.398580	 5.299294	 13.817810	-5.521456	-3.812334	 37.924440	-2.927599	-2.450526	 36.184240	 0.754587	-1.378229	 35.397820	-2.634230	 1.299824	 2.107331	-5.052956	 1.129154	-9.364320	 4.531094	 89.782120	 78.203870	 180.000000	-35.422950	 73.418470	 32.574850	 0.264935	-6.576426	 19.739940	-17.283800	 12.494840	 9.751864	 6.437017	 35.671460	-0.771858	 2.830251	 35.756010	-7.813440	-2.350882	 35.473990	 5.254307
 3.886979	 0.004399	 0.965219	 86.053950	-2.070063	-1.311476	 8.125142	 26.755390	-178.992300	-2.191824	-11.588470	 1.789089	 5.679877	 81.709260	-0.668860	-2.188401	 47.457130	-0.497273	 4.844574	-35.053280	-177.615000	 0.918323	-38.668960	 4.340750	 91.966450	 89.762610	-86.072900	 2.372391	 30.834760	 0.053836	-1.377285	 3.103945	 1.856766	-1.343985	-1.719872	 0.337859	-1.054783	-3.992804	-0.817572	-91.776180	 78.527400	-180.000000	 38.771550	 61.780500	-56.037070	-9.138361	-4.921048	-35.904560	 5.326091	 14.157220	-5.532782	-3.812334	 37.924440	-2.927599	-2.450526	 36.184240	 0.754587	-1.378229	 35.397820	-2.634230	 1.367884	 2.239130	-5.100164	 1.187235	-9.440933	 4.755202	 89.782090	 78.203830	-180.000000	-35.012810	 73.626460	 32.132400	 0.191457	-6.508196	 19.190950	-17.590920	 12.805810	 9.755934	 6.437017	 35.671460	-0.771858	 2.830251	 35.756010	-7.813440	-2.350882	 35.473990	 5.254307
 3.917302	-0.000680	 0.964220	 86.329790	-2.134184	-1.279882	 8.387348	 27.930330	-179.724700	-1.781903	-11.577470	 1.859835	 5.865098	 80.162900	-0.408034	-2.160367	 48.895890	-0.546236	 4.753428	-34.350970	-177.816000	 1.538216	-39.653130	 4.840105	 30.207870	 89.587880	-23.939210	 2.377535	 29.879800	 0.032584	-1.478054	 3.002859	 1.828125	-1.389994	-1.723811	 0.216651	-0.982225	-3.871599	-0.878392	-91.776180	 78.527400	-180.000000	 39.562380	 62.281360	-56.126470	-9.107588	-4.869028	-35.263520	 5.363492	 14.375600	-5.539067	-3.812334	 37.924440	-2.927599	-2.450526	 36.184240	 0.754587	-1.378229	 35.397820	-2.634230	 1.439191	 2.415222	-5.127896	 1.245248	-9.521457	 4.919764	 89.782120	 78.203930	 180.000000	-34.437040	 73.797420	 31.437650	 0.133195	-6.448451	 18.741430	-17.833690	 13.010740	 9.757484	 6.437017	 35.671460	-0.771858	 2.830251	 35.756010	-7.813440	-2.350882	 35.473990	 5.254307
 3.949426	-0.006283	 0.963274	 86.661950	-2.196130	-1.229075	 8.672707	 29.123010	 179.428600	-1.357551	-11.567390	 1.922390	 5.878652	 78.077470	 0.032737	-2.131891	 50.230090	-0.593938	 4.492957	-33.578060	-178.176000	 2.486623	-40.846100	 5.508196	 11.559390	 89.087640	-4.811595	 2.380411	 29.303480	 0.019913	-1.610253	 2.868516	 1.763915	-1.458120	-1.735585	 0.093840	-0.899175	-3.738489	-0.957547	-91.776180	 78.527380	-180.000000	 40.405590	 62.881990	-56.071930	-9.023520	-4.825234	-34.391960	 5.448252	 14.513660	-5.541403	-3.812334	 37.924440	-2.927599	-2.450526	 36.184240	 0.754587	-1.378229	 35.397820	-2.634230	 1.513237	 2.623015	-5.128304	 1.301310	-9.570040	 5.035426	 89.782120	 78.203870	 180.000000	-33.675290	 73.951350	 30.473750	 0.086305	-6.390454	 18.337400	-18.039720	 13.146680	 9.757344	 6.437017	 35.671460	-0.771858	 2.830251	 35.756010	-7.813440	-2.350882	 35.473990	 5.254307
